<?xml version="1.0" encoding="UTF-8" standalone="no"?>
<!-- Created with Inkscape (http://www.inkscape.org/) -->

<svg
   version="1.1"
   id="svg2"
   width="266.66666"
   height="600"
   viewBox="0 0 266.66666 600"
   sodipodi:docname="cat banners.ai"
   xmlns:inkscape="http://www.inkscape.org/namespaces/inkscape"
   xmlns:sodipodi="http://sodipodi.sourceforge.net/DTD/sodipodi-0.dtd"
   xmlns="http://www.w3.org/2000/svg"
   xmlns:svg="http://www.w3.org/2000/svg">
  <defs
     id="defs6">
    <clipPath
       clipPathUnits="userSpaceOnUse"
       id="clipPath16">
      <path
         d="M 0,450 H 200 V 0 H 0 Z"
         id="path14" />
    </clipPath>
    <clipPath
       clipPathUnits="userSpaceOnUse"
       id="clipPath56">
      <path
         d="m 107.6,377.047 h 15.514 V 361.533 H 107.6 Z"
         id="path54" />
    </clipPath>
    <clipPath
       clipPathUnits="userSpaceOnUse"
       id="clipPath84">
      <path
         d="M 78.1719,377.047 H 93.6862 V 361.533 H 78.1719 Z"
         id="path82" />
    </clipPath>
    <clipPath
       clipPathUnits="userSpaceOnUse"
       id="clipPath156">
      <path
         d="M 80.7085,345.537 H 120.577 V 319.246 H 80.7085 Z"
         id="path154" />
    </clipPath>
    <clipPath
       clipPathUnits="userSpaceOnUse"
       id="clipPath240">
      <path
         d="M 24.7695,339.467 H 58.651 V 328.341 H 24.7695 Z"
         id="path238" />
    </clipPath>
    <clipPath
       clipPathUnits="userSpaceOnUse"
       id="clipPath268">
      <path
         d="M 49.0861,378.288 H 63.049 V 364.325 H 49.0861 Z"
         id="path266" />
    </clipPath>
    <clipPath
       clipPathUnits="userSpaceOnUse"
       id="clipPath296">
      <path
         d="M 19.9068,377.58 H 33.8697 V 363.617 H 19.9068 Z"
         id="path294" />
    </clipPath>
    <clipPath
       clipPathUnits="userSpaceOnUse"
       id="clipPath372">
      <path
         d="m 135.447,341.17 h 36.415 v -15.235 h -36.415 z"
         id="path370" />
    </clipPath>
    <clipPath
       clipPathUnits="userSpaceOnUse"
       id="clipPath412">
      <path
         d="m 165.989,371.604 h 15.517 v -15.517 h -15.517 z"
         id="path410" />
    </clipPath>
    <clipPath
       clipPathUnits="userSpaceOnUse"
       id="clipPath440">
      <path
         d="m 135.867,376.841 h 15.517 v -15.517 h -15.517 z"
         id="path438" />
    </clipPath>
  </defs>
  <sodipodi:namedview
     id="namedview4"
     pagecolor="#ffffff"
     bordercolor="#000000"
     borderopacity="0.25"
     inkscape:showpageshadow="2"
     inkscape:pageopacity="0.0"
     inkscape:pagecheckerboard="0"
     inkscape:deskcolor="#d1d1d1" />
  <g
     id="g8"
     inkscape:groupmode="layer"
     inkscape:label="cat banners"
     transform="matrix(1.3333333,0,0,-1.3333333,0,600)">
    <g
       id="g10">
      <g
         id="g12"
         clip-path="url(#clipPath16)">
        <g
           id="g18"
           transform="translate(128.9973,363.2135)">
          <path
             d="M 0,0 C 0,-0.1 -0.003,-0.201 -0.009,-0.298 -0.014,-0.444 -0.026,-0.59 -0.043,-0.736 -0.166,-1.864 -0.558,-3.004 -1.151,-4.13 -1.2,-4.23 -1.252,-4.327 -1.309,-4.425 -1.601,-4.955 -1.936,-5.482 -2.305,-6 c -0.003,-0.006 -0.009,-0.009 -0.012,-0.014 -0.616,-0.868 -1.326,-1.719 -2.096,-2.541 -0.083,-0.091 -0.169,-0.18 -0.255,-0.269 -0.146,-0.154 -0.295,-0.309 -0.447,-0.461 -0.009,-0.006 -0.014,-0.011 -0.017,-0.017 -1.192,-1.2 -2.489,-2.331 -3.772,-3.357 -0.364,-0.289 -0.707,-0.595 -1.031,-0.919 -1.206,-1.191 -2.148,-2.589 -2.795,-4.098 -1.051,-2.44 -1.343,-5.181 -0.762,-7.839 0.137,-0.639 0.326,-1.271 0.567,-1.896 2.165,-5.602 4.436,-12.421 4.505,-16.556 h -39.869 c 0.069,4.135 2.34,10.954 4.502,16.556 0.241,0.625 0.433,1.257 0.57,1.896 0.063,0.292 0.118,0.584 0.158,0.879 0.656,4.474 -1.1,9.059 -4.746,11.977 -1.163,0.931 -2.34,1.948 -3.437,3.028 -0.088,0.083 -0.174,0.169 -0.26,0.254 -0.456,0.459 -0.899,0.923 -1.315,1.398 -0.246,0.272 -0.375,0.43 -0.375,0.43 -0.713,0.836 -1.352,1.695 -1.884,2.566 -0.052,0.088 -0.106,0.174 -0.158,0.263 -0.77,1.318 -1.286,2.658 -1.432,3.984 -0.008,0.089 -0.017,0.175 -0.023,0.263 -0.008,0.095 -0.014,0.187 -0.017,0.281 -0.112,2.884 1.28,6.241 3.159,9.411 1.438,2.429 3.162,4.748 4.714,6.659 0.103,0.126 0.206,0.252 0.306,0.375 0.038,0.301 0.072,0.598 0.104,0.899 0.346,3.259 0.415,6.547 0.206,9.818 -0.129,1.987 -0.364,3.989 -1.026,5.868 -0.658,1.867 -1.772,3.623 -3.388,4.768 0.705,-0.04 1.312,-0.498 1.868,-0.942 5.189,-4.13 10.376,-8.257 15.565,-12.386 h 0.003 c 1.942,0.34 4.207,0.567 6.811,0.57 h 0.06 c 2.603,-0.003 4.868,-0.23 6.81,-0.57 h 0.003 c 5.189,4.129 10.376,8.256 15.565,12.386 0.556,0.444 1.163,0.902 1.868,0.942 -1.615,-1.145 -2.73,-2.901 -3.388,-4.768 -0.665,-1.879 -0.9,-3.881 -1.026,-5.868 -0.223,-3.471 -0.131,-6.96 0.275,-10.414 0.009,-0.1 0.023,-0.203 0.035,-0.303 0.203,-0.246 0.409,-0.501 0.618,-0.765 1.47,-1.83 3.062,-4.001 4.402,-6.269 C -1.323,6.12 0.046,2.841 0,0"
             style="fill:#5d4444;fill-opacity:1;fill-rule:nonzero;stroke:none"
             id="path20" />
        </g>
        <g
           id="g22"
           transform="translate(80.4707,379.4664)">
          <path
             d="m 0,0 c -1.627,-1.976 -3.488,-4.442 -5.02,-7.034 -1.306,3.497 -2.32,7.097 -2.839,10.789 -0.698,4.96 -0.478,10.098 1.083,14.861 0.212,0.647 0.455,1.297 0.882,1.827 0.424,0.532 1.063,0.933 1.744,0.913 0.014,0 0.032,0 0.046,-0.002 1.615,-1.146 2.729,-2.902 3.388,-4.769 C -0.054,14.706 0.18,12.704 0.309,10.717 0.538,7.146 0.435,3.554 0,0"
             style="fill:#ef8b81;fill-opacity:1;fill-rule:nonzero;stroke:none"
             id="path24" />
        </g>
        <g
           id="g26"
           transform="translate(128.6737,383.221)">
          <path
             d="m 0,0 c -0.518,-3.692 -1.532,-7.292 -2.838,-10.788 -1.532,2.591 -3.394,5.057 -5.021,7.033 -0.435,3.555 -0.538,7.146 -0.309,10.717 0.126,1.988 0.361,3.99 1.025,5.868 0.659,1.868 1.773,3.623 3.388,4.769 0.015,0.003 0.032,0.003 0.046,0.003 0.679,0.02 1.32,-0.381 1.744,-0.914 0.427,-0.53 0.668,-1.18 0.88,-1.827 C 0.475,10.098 0.696,4.96 0,0"
             style="fill:#ef8b81;fill-opacity:1;fill-rule:nonzero;stroke:none"
             id="path28" />
        </g>
        <g
           id="g30"
           transform="translate(120.5773,319.2463)">
          <path
             d="m 0,0 h -39.869 c 0.069,4.135 2.34,10.955 4.502,16.556 0.241,0.625 0.433,1.258 0.57,1.896 0.183,0.241 0.384,0.499 0.599,0.774 1.311,1.675 3.139,3.909 4.762,5.536 0,0 -0.856,0.615 -1.071,2.686 -0.209,2.022 0.195,5.43 2.612,11.006 0.209,0.478 0.416,0.931 0.622,1.358 1.036,2.13 2.059,3.611 2.995,4.642 2.466,2.706 4.345,2.28 4.345,2.28 0,0 1.876,0.426 4.342,-2.28 0.656,-0.722 1.351,-1.664 2.068,-2.895 0.509,-0.88 1.031,-1.905 1.549,-3.105 2.506,-5.779 2.849,-9.23 2.586,-11.221 -0.249,-1.899 -1.045,-2.471 -1.045,-2.471 0.343,-0.344 0.693,-0.714 1.048,-1.1 1.598,-1.744 3.245,-3.818 4.313,-5.21 0.137,-0.638 0.326,-1.271 0.567,-1.896 C -2.34,10.955 -0.069,4.135 0,0"
             style="fill:#fddfd5;fill-opacity:1;fill-rule:nonzero;stroke:none"
             id="path32" />
        </g>
        <g
           id="g34"
           transform="translate(121.3866,379.8398)">
          <path
             d="M 0,0 C 4.783,4.798 11.154,8.095 17.842,9.22 11.353,7.311 5.317,4.197 0,0"
             style="fill:#fddfd5;fill-opacity:1;fill-rule:nonzero;stroke:none"
             id="path36" />
        </g>
        <g
           id="g38"
           transform="translate(121.9558,378.8937)">
          <path
             d="M 0,0 C 5.784,2.241 12.097,3.211 18.287,2.8 12.11,2.413 6.009,1.482 0,0"
             style="fill:#fddfd5;fill-opacity:1;fill-rule:nonzero;stroke:none"
             id="path40" />
        </g>
        <g
           id="g42"
           transform="translate(80.1898,380.4041)">
          <path
             d="M 0,0 C -3.86,4.677 -8.824,8.338 -14.429,10.652 -8.53,9.098 -3.224,5.178 0,0"
             style="fill:#fddfd5;fill-opacity:1;fill-rule:nonzero;stroke:none"
             id="path44" />
        </g>
        <g
           id="g46"
           transform="translate(78.9234,379.8019)">
          <path
             d="M 0,0 C -4.485,1.873 -9.254,2.885 -14.113,3.003 -9.272,3.694 -4.141,2.599 0,0"
             style="fill:#fddfd5;fill-opacity:1;fill-rule:nonzero;stroke:none"
             id="path48" />
        </g>
        <g
           id="g50">
          <g
             id="g52" />
          <g
             id="g64">
            <g
               clip-path="url(#clipPath56)"
               opacity="0.399994"
               id="g62">
              <g
                 transform="translate(123.1139,369.2903)"
                 id="g60">
                <path
                   d="m 0,0 c 0,-4.284 -3.473,-7.757 -7.757,-7.757 -4.284,0 -7.757,3.473 -7.757,7.757 0,4.284 3.473,7.757 7.757,7.757 C -3.473,7.757 0,4.284 0,0"
                   style="fill:#2d100f;fill-opacity:1;fill-rule:nonzero;stroke:none"
                   id="path58" />
              </g>
            </g>
          </g>
        </g>
        <g
           id="g66"
           transform="translate(122.1983,367.3261)">
          <path
             d="m 0,0 c 0,-3.288 -1.87,-5.533 -4.605,-6.578 -1.169,-0.45 -2.492,-0.679 -3.895,-0.679 -2.795,0 -5.276,0.911 -6.825,2.637 -1.051,1.172 -1.672,2.724 -1.672,4.62 0,4.694 3.806,8.5 8.497,8.5 C -3.806,8.5 0,4.694 0,0"
             style="fill:#89ccc8;fill-opacity:1;fill-rule:nonzero;stroke:none"
             id="path68" />
        </g>
        <g
           id="g70"
           transform="translate(119.2513,365.0493)">
          <path
             d="M 0,0 C 0,-1.655 -0.627,-3.165 -1.658,-4.302 -2.827,-4.751 -4.15,-4.98 -5.553,-4.98 c -2.795,0 -5.276,0.91 -6.825,2.637 -0.286,0.725 -0.444,1.515 -0.444,2.343 0,3.54 2.87,6.412 6.41,6.412 C -2.87,6.412 0,3.54 0,0"
             style="fill:#6d1e1d;fill-opacity:1;fill-rule:nonzero;stroke:none"
             id="path72" />
        </g>
        <g
           id="g74"
           transform="translate(105.2012,367.9474)">
          <path
             d="m 0,0 c 0.306,5.892 4.851,9.221 10.586,8.152 4.189,-0.7 6.823,-4.655 6.41,-8.772 C 16.77,2.526 14.988,5.752 11.922,6.843 10.945,7.211 9.899,7.382 8.853,7.401 4.081,7.673 0.948,4.482 0,0"
             style="fill:#892929;fill-opacity:1;fill-rule:nonzero;stroke:none"
             id="path76" />
        </g>
        <g
           id="g78">
          <g
             id="g80" />
          <g
             id="g92">
            <g
               clip-path="url(#clipPath84)"
               opacity="0.399994"
               id="g90">
              <g
                 transform="translate(78.1719,369.2903)"
                 id="g88">
                <path
                   d="m 0,0 c 0,-4.284 3.473,-7.757 7.757,-7.757 4.284,0 7.757,3.473 7.757,7.757 0,4.284 -3.473,7.757 -7.757,7.757 C 3.473,7.757 0,4.284 0,0"
                   style="fill:#2d100f;fill-opacity:1;fill-rule:nonzero;stroke:none"
                   id="path86" />
              </g>
            </g>
          </g>
        </g>
        <g
           id="g94"
           transform="translate(96.0849,367.3261)">
          <path
             d="m 0,0 c 0,-1.896 -0.621,-3.448 -1.673,-4.62 -1.549,-1.726 -4.029,-2.637 -6.824,-2.637 -1.404,0 -2.727,0.229 -3.892,0.679 -2.735,1.042 -4.608,3.287 -4.608,6.578 0,4.694 3.806,8.5 8.5,8.5 C -3.806,8.5 0,4.694 0,0"
             style="fill:#89ccc8;fill-opacity:1;fill-rule:nonzero;stroke:none"
             id="path96" />
        </g>
        <g
           id="g98"
           transform="translate(94.8563,365.0493)">
          <path
             d="M 0,0 C 0,-0.828 -0.158,-1.618 -0.444,-2.343 -1.993,-4.07 -4.473,-4.98 -7.269,-4.98 c -1.403,0 -2.726,0.229 -3.892,0.678 -1.031,1.137 -1.661,2.647 -1.661,4.302 0,3.54 2.87,6.412 6.413,6.412 C -2.87,6.412 0,3.54 0,0"
             style="fill:#6d1e1d;fill-opacity:1;fill-rule:nonzero;stroke:none"
             id="path100" />
        </g>
        <g
           id="g102"
           transform="translate(96.0845,367.9474)">
          <path
             d="m 0,0 c -0.951,4.486 -4.079,7.672 -8.853,7.401 -1.046,-0.019 -2.092,-0.19 -3.069,-0.558 -3.066,-1.091 -4.848,-4.317 -5.074,-7.463 -0.412,4.119 2.22,8.071 6.41,8.772 C -4.851,9.223 -0.304,5.888 0,0"
             style="fill:#892929;fill-opacity:1;fill-rule:nonzero;stroke:none"
             id="path104" />
        </g>
        <g
           id="g106"
           transform="translate(94.5086,358.8452)">
          <path
             d="m 0,0 c 0.096,-1.504 1.735,-2.445 3.016,-1.696 1.533,0.903 2.462,2.685 3.039,4.328 0.416,-0.986 0.801,-2.299 1.476,-3.065 1.007,-1.273 2.605,-0.986 3.534,0.242 0.485,0.592 0.798,1.341 1.137,2.073 -0.645,-4.817 -5.021,-5.368 -6.58,-0.68 0,0 0.862,-0.007 0.862,-0.007 C 6.015,0.083 5.295,-0.91 4.369,-1.683 3.744,-2.21 2.913,-2.644 2.058,-2.554 0.8,-2.478 -0.245,-1.196 0,0"
             style="fill:#892929;fill-opacity:1;fill-rule:nonzero;stroke:none"
             id="path108" />
        </g>
        <g
           id="g110"
           transform="translate(100.6443,360.7276)">
          <path
             d="M 0,0 C 0,0 -4.07,1.87 -3.712,2.787 -3.354,3.7 0,3.342 0,3.342 0,3.342 3.351,3.7 3.709,2.787 4.067,1.87 0,0 0,0"
             style="fill:#ef8b81;fill-opacity:1;fill-rule:nonzero;stroke:none"
             id="path112" />
        </g>
        <g
           id="g114"
           transform="translate(98.5814,354.8246)">
          <path
             d="M 0,0 C 1.363,-1.046 2.473,-2.049 3.64,-3.311 1.801,-3.544 -0.053,-1.85 0,0"
             style="fill:#eeb5ab;fill-opacity:1;fill-rule:nonzero;stroke:none"
             id="path116" />
        </g>
        <g
           id="g118"
           transform="translate(75.805,355.6632)">
          <path
             d="m 0,0 c 3.505,-3.067 7.167,-5.947 11.243,-8.212 0.569,-0.344 1.191,-0.634 1.763,-0.975 -0.494,0.113 -0.986,0.247 -1.473,0.389 -1.092,0.371 -2.26,0.853 -3.265,1.416 C 5.014,-5.592 2.065,-3.104 0,0"
             style="fill:#892929;fill-opacity:1;fill-rule:nonzero;stroke:none"
             id="path120" />
        </g>
        <g
           id="g122"
           transform="translate(112.4568,346.4758)">
          <path
             d="m 0,0 c 1.426,0.433 2.769,1.185 4.039,1.948 3.18,1.98 5.927,4.559 8.582,7.183 0.526,0.541 1.052,1.085 1.613,1.607 C 13.836,10.088 13.402,9.462 12.969,8.832 10.068,4.932 5.047,0.393 0,0"
             style="fill:#892929;fill-opacity:1;fill-rule:nonzero;stroke:none"
             id="path124" />
        </g>
        <g
           id="g126"
           transform="translate(114.6521,357.3741)">
          <path
             d="M 0,0 C 7.658,3.892 15.888,6.707 24.31,8.395 L 26,8.71 24.326,8.321 C 15.973,6.353 7.812,3.551 0,0"
             style="fill:#fddfd5;fill-opacity:1;fill-rule:nonzero;stroke:none"
             id="path128" />
        </g>
        <g
           id="g130"
           transform="translate(116.2785,356.5071)">
          <path
             d="m 0,0 c 6.104,2.059 12.587,3.053 19.028,2.933 0,0 -1.206,-0.062 -1.206,-0.062 C 11.802,2.55 5.819,1.575 0,0"
             style="fill:#fddfd5;fill-opacity:1;fill-rule:nonzero;stroke:none"
             id="path132" />
        </g>
        <g
           id="g134"
           transform="translate(132.1161,353.5276)">
          <path
             d="M 0,0 -1.011,0.149 C -1.887,0.281 -2.764,0.395 -3.643,0.495 -5.02,0.653 -6.404,0.776 -7.787,0.862 H -7.81 c -2.804,0.175 -5.619,0.203 -8.428,0.092 2.875,0.323 5.785,0.381 8.674,0.18 0.012,0 0.02,0 0.032,-0.003 C -6.16,1.037 -4.794,0.882 -3.437,0.667 -2.283,0.487 -1.137,0.264 0,0"
             style="fill:#fddfd5;fill-opacity:1;fill-rule:nonzero;stroke:none"
             id="path136" />
        </g>
        <g
           id="g138"
           transform="translate(88.4454,356.6359)">
          <path
             d="M 0,0 C -7.658,3.892 -15.888,6.707 -24.31,8.395 L -26,8.71 -24.326,8.321 C -15.973,6.353 -7.812,3.551 0,0"
             style="fill:#fddfd5;fill-opacity:1;fill-rule:nonzero;stroke:none"
             id="path140" />
        </g>
        <g
           id="g142"
           transform="translate(86.819,355.7689)">
          <path
             d="m 0,0 c -6.104,2.059 -12.587,3.053 -19.028,2.933 l 1.206,-0.062 C -11.802,2.55 -5.819,1.575 0,0"
             style="fill:#fddfd5;fill-opacity:1;fill-rule:nonzero;stroke:none"
             id="path144" />
        </g>
        <g
           id="g146"
           transform="translate(87.2205,353.7424)">
          <path
             d="m 0,0 c -5.41,0.608 -10.936,0.28 -16.238,-0.953 0,0 1.009,0.15 1.009,0.15 C -10.193,-0.054 -5.087,0.202 0,0"
             style="fill:#fddfd5;fill-opacity:1;fill-rule:nonzero;stroke:none"
             id="path148" />
        </g>
        <g
           id="g150">
          <g
             id="g152" />
          <g
             id="g164">
            <g
               clip-path="url(#clipPath156)"
               opacity="0.399994"
               id="g162">
              <g
                 transform="translate(116.0724,335.8028)"
                 id="g160">
                <path
                   d="m 0,0 c 2.165,-5.602 4.436,-12.421 4.505,-16.556 h -39.869 c 0.069,4.135 2.34,10.954 4.502,16.556 0.241,0.624 0.433,1.257 0.57,1.896 0.063,0.292 0.118,0.584 0.158,0.879 0.146,-0.037 0.292,-0.071 0.441,-0.106 7.787,-1.784 15.96,0.478 23.1,3.652 0.576,0.255 1.146,0.518 1.713,0.784 1.724,0.817 3.416,1.693 5.075,2.629 C -0.856,7.294 -1.148,4.554 -0.567,1.896 -0.43,1.257 -0.241,0.624 0,0"
                   style="fill:#2d100f;fill-opacity:1;fill-rule:nonzero;stroke:none"
                   id="path158" />
              </g>
            </g>
          </g>
        </g>
        <g
           id="g166"
           transform="translate(22.8144,383.7152)">
          <path
             d="m 0,0 v -0.003 c -0.008,-0.138 -0.022,-0.275 -0.036,-0.413 -0.378,-3.556 -2.264,-6.919 -5.081,-9.116 -0.241,0.599 -0.454,1.206 -0.638,1.821 -1.669,5.514 -1.208,11.676 1.371,16.838 0.18,0.357 0.412,0.746 0.802,0.841 0.037,0.01 0.074,0.017 0.111,0.018 C -1.02,7.318 0.262,3.613 0,0"
             style="fill:#ef8b81;fill-opacity:1;fill-rule:nonzero;stroke:none"
             id="path168" />
        </g>
        <g
           id="g170"
           transform="translate(64.5336,377.2415)">
          <path
             d="m 0,0 v -0.003 c -0.154,-0.622 -0.337,-1.24 -0.548,-1.847 -2.92,2.055 -4.968,5.326 -5.515,8.856 -0.02,0.137 -0.041,0.274 -0.056,0.411 V 7.42 c -0.439,3.596 0.664,7.359 2.983,10.142 0.034,10e-4 0.072,-0.004 0.109,-0.011 0.394,-0.074 0.647,-0.452 0.842,-0.802 C 0.644,11.721 1.4,5.589 0,0"
             style="fill:#ef8b81;fill-opacity:1;fill-rule:nonzero;stroke:none"
             id="path172" />
        </g>
        <g
           id="g174"
           transform="translate(69.6497,348.9126)">
          <path
             d="m 0,0 c -0.887,-3.133 -3.991,-5.523 -7.821,-7.326 -8.214,-3.872 -19.748,-5.04 -19.748,-5.04 l -0.619,-0.098 c 0,0 -11.577,0.608 -19.969,4.077 -3.912,1.615 -7.132,3.852 -8.169,6.935 -2.264,6.737 0.149,20.057 3.733,28.535 v 0.003 c 0,0.003 0.003,0.003 0.003,0.005 0,-0.002 0.003,-0.008 0.003,-0.011 0.184,-0.611 0.394,-1.214 0.634,-1.809 0.163,0.127 0.323,0.259 0.481,0.395 0.168,0.145 0.331,0.292 0.49,0.445 0.361,0.341 0.705,0.707 1.022,1.09 1.331,1.585 2.299,3.476 2.789,5.485 0.138,0.559 0.239,1.126 0.3,1.7 0.014,0.138 0.028,0.276 0.036,0.414 v 0.003 c 0.039,0.519 0.043,1.043 0.019,1.564 0,0.017 -10e-4,0.037 -0.004,0.055 -0.164,3.078 -1.4,6.096 -3.486,8.366 0.34,0.028 0.671,-0.17 0.965,-0.36 3.779,-2.473 7.557,-4.945 11.339,-7.42 3.978,0.621 7.884,0.933 9.723,1.055 2.07,-0.067 5.064,-0.215 8.112,-0.539 h 0.003 c 3.654,2.655 7.311,5.308 10.965,7.96 0.281,0.208 0.606,0.422 0.947,0.407 -1.698,-2.038 -2.745,-4.601 -3.007,-7.24 -0.082,-0.776 -0.091,-1.558 -0.032,-2.336 0.016,-0.189 0.034,-0.377 0.056,-0.566 v -0.003 c 0.015,-0.137 0.036,-0.274 0.056,-0.411 0.136,-0.882 0.366,-1.75 0.682,-2.585 0.627,-1.666 1.59,-3.21 2.811,-4.512 0.332,-0.353 0.684,-0.688 1.052,-1.003 0.088,-0.075 0.176,-0.15 0.266,-0.223 0.228,-0.186 0.465,-0.364 0.704,-0.533 0.206,0.595 0.386,1.196 0.538,1.807 l -10e-4,0.003 c 0.006,0.011 0.008,0.026 0.011,0.037 0.003,-0.008 0.009,-0.017 0.012,-0.025 C -1.115,20.003 1.931,6.836 0,0"
             style="fill:#f9a872;fill-opacity:1;fill-rule:nonzero;stroke:none"
             id="path176" />
        </g>
        <g
           id="g178"
           transform="translate(12.674,350.3696)">
          <path
             d="M 0,0 C 3.304,0.097 6.579,1.131 9.313,2.99 7.233,0.006 4.429,-2.462 1.224,-4.182 0.991,-3.775 0.797,-3.35 0.649,-2.909 0.356,-2.043 0.143,-1.062 0,0"
             style="fill:#ec894f;fill-opacity:1;fill-rule:nonzero;stroke:none"
             id="path180" />
        </g>
        <g
           id="g182"
           transform="translate(21.2881,365.146)">
          <path
             d="M 0,0 C -2.469,0.232 -4.886,0.99 -7.052,2.198 -6.689,3.662 -6.286,5.096 -5.841,6.47 -4.398,3.921 -2.393,1.689 0,0"
             style="fill:#ec894f;fill-opacity:1;fill-rule:nonzero;stroke:none"
             id="path184" />
        </g>
        <g
           id="g186"
           transform="translate(13.595,364.4867)">
          <path
             d="M 0,0 C 4.46,-2.59 9.581,-4.045 14.739,-4.12 10.244,-7.673 4.575,-9.689 -1.147,-9.863 -1.104,-6.791 -0.683,-3.377 0,0"
             style="fill:#ec894f;fill-opacity:1;fill-rule:nonzero;stroke:none"
             id="path188" />
        </g>
        <g
           id="g190"
           transform="translate(21.5342,390.4336)">
          <path
             d="M 0,0 C -0.562,1.19 -1.299,2.298 -2.191,3.267 -1.85,3.295 -1.519,3.097 -1.225,2.907 0.457,1.807 2.14,0.705 3.823,-0.397 2.569,-0.107 1.283,0.025 0,0"
             style="fill:#ec894f;fill-opacity:1;fill-rule:nonzero;stroke:none"
             id="path192" />
        </g>
        <g
           id="g194"
           transform="translate(37.9478,378.0949)">
          <path
             d="M 0,0 C -2.193,2.199 -3.701,5.067 -4.293,8.115 -2.946,8.294 -1.646,8.44 -0.477,8.554 -0.806,5.704 -0.646,2.795 0,0"
             style="fill:#ec894f;fill-opacity:1;fill-rule:nonzero;stroke:none"
             id="path196" />
        </g>
        <g
           id="g198"
           transform="translate(43.9919,386.8616)">
          <path
             d="m 0,0 c -0.351,-4.314 -1.336,-8.575 -2.917,-12.604 -1.969,3.825 -2.787,8.229 -2.363,12.51 1.089,0.098 2.004,0.166 2.659,0.208 C -1.859,0.09 -0.97,0.054 0,0"
             style="fill:#ec894f;fill-opacity:1;fill-rule:nonzero;stroke:none"
             id="path200" />
        </g>
        <g
           id="g202"
           transform="translate(45.4033,386.7813)">
          <path
             d="M 0,0 C 1.113,-0.073 2.299,-0.165 3.502,-0.285 2.289,-2.844 0.566,-5.16 -1.548,-7.039 -0.747,-4.768 -0.228,-2.398 0,0"
             style="fill:#ec894f;fill-opacity:1;fill-rule:nonzero;stroke:none"
             id="path204" />
        </g>
        <g
           id="g206"
           transform="translate(59.585,391.9324)">
          <path
             d="M 0,0 C -1.246,-0.125 -2.48,-0.404 -3.661,-0.822 -2.152,0.274 -0.643,1.371 0.866,2.465 1.147,2.672 1.471,2.886 1.813,2.871 1.086,2 0.479,1.031 0,0"
             style="fill:#ec894f;fill-opacity:1;fill-rule:nonzero;stroke:none"
             id="path208" />
        </g>
        <g
           id="g210"
           transform="translate(67.8238,368.5609)">
          <path
             d="m 0,0 c -1.763,-0.908 -3.676,-1.522 -5.64,-1.801 1.805,1.41 3.356,3.138 4.575,5.075 C -0.687,2.209 -0.331,1.112 0,0"
             style="fill:#ec894f;fill-opacity:1;fill-rule:nonzero;stroke:none"
             id="path212" />
        </g>
        <g
           id="g214"
           transform="translate(70.1373,356.6852)">
          <path
             d="m 0,0 c -5.261,0.179 -10.474,1.895 -14.759,4.959 4.645,0.293 9.206,1.704 13.232,4.037 C -0.763,5.937 -0.221,2.845 0,0"
             style="fill:#ec894f;fill-opacity:1;fill-rule:nonzero;stroke:none"
             id="path216" />
        </g>
        <g
           id="g218"
           transform="translate(62.0577,354.9508)">
          <path
             d="M 0,0 C 2.451,-1.493 5.277,-2.353 8.142,-2.51 8.065,-3.806 7.888,-4.997 7.592,-6.038 7.566,-6.128 7.539,-6.217 7.51,-6.307 4.599,-4.764 2.014,-2.61 0,0"
             style="fill:#ec894f;fill-opacity:1;fill-rule:nonzero;stroke:none"
             id="path220" />
        </g>
        <g
           id="g222"
           transform="translate(22.8337,385.2798)">
          <path
             d="m 0,0 c 0.024,-0.521 0.02,-1.045 -0.019,-1.565 v -0.002 c -0.008,-0.138 -0.022,-0.276 -0.036,-0.414 -0.061,-0.574 -0.161,-1.141 -0.3,-1.7 -0.49,-2.009 -1.458,-3.9 -2.789,-5.485 -0.317,-0.383 -0.661,-0.75 -1.022,-1.091 -0.159,-0.153 -0.322,-0.3 -0.49,-0.444 -0.222,0.267 -0.387,0.578 -0.472,0.914 -0.244,0.948 0.157,2.026 0.962,2.587 -0.468,0.536 -0.948,1.089 -1.174,1.762 -0.225,0.674 -0.137,1.506 0.402,1.969 0.539,0.463 1.548,0.307 1.765,-0.369 -0.154,1.523 -0.306,3.049 -0.457,4.572 -0.091,0.892 -0.066,2.004 0.732,2.41 0.857,0.433 1.857,-0.37 2.245,-1.249 0.263,-0.589 0.4,-1.251 0.649,-1.841 C -0.001,0.037 0,0.017 0,0"
             style="fill:#fddfd5;fill-opacity:1;fill-rule:nonzero;stroke:none"
             id="path224" />
        </g>
        <g
           id="g226"
           transform="translate(23.2929,384.5376)">
          <path
             d="M 0,0 C -0.115,0.138 -0.213,0.287 -0.297,0.443 Z"
             style="fill:#fddfd5;fill-opacity:1;fill-rule:nonzero;stroke:none"
             id="path228" />
        </g>
        <g
           id="g230"
           transform="translate(63.6293,381.1013)">
          <path
             d="M 0,0 C -0.193,-0.684 -0.646,-1.259 -1.088,-1.817 -0.256,-2.338 0.197,-3.396 0,-4.354 c -0.059,-0.294 -0.181,-0.572 -0.347,-0.822 -0.091,0.072 -0.178,0.147 -0.266,0.222 -0.369,0.315 -0.721,0.65 -1.053,1.003 -1.221,1.303 -2.183,2.846 -2.811,4.513 -0.315,0.834 -0.546,1.703 -0.681,2.585 -0.021,0.137 -0.042,0.274 -0.056,0.411 v 0.003 c -0.022,0.188 -0.041,0.377 -0.057,0.565 -0.059,0.778 -0.049,1.56 0.032,2.336 0.058,0.216 0.121,0.43 0.202,0.635 0.345,0.897 1.304,1.748 2.182,1.356 C -2.038,8.087 -1.96,6.977 -2.007,6.082 -2.084,4.553 -2.162,3.022 -2.242,1.493 -2.058,2.179 -1.058,2.384 -0.497,1.947 0.064,1.511 0.193,0.684 0,0"
             style="fill:#fddfd5;fill-opacity:1;fill-rule:nonzero;stroke:none"
             id="path232" />
        </g>
        <g
           id="g234">
          <g
             id="g236" />
          <g
             id="g248">
            <g
               clip-path="url(#clipPath240)"
               opacity="0.399994"
               id="g246">
              <g
                 transform="translate(24.7695,338.575)"
                 id="g244">
                <path
                   d="M 0,0 C 0,0 4.173,-10.554 17.644,-10.227 31.115,-9.9 33.882,0.892 33.882,0.892 33.882,0.892 20.744,-7.152 0,0"
                   style="fill:#2d100f;fill-opacity:1;fill-rule:nonzero;stroke:none"
                   id="path242" />
              </g>
            </g>
          </g>
        </g>
        <g
           id="g250"
           transform="translate(27.8582,385.2287)">
          <path
             d="M 0,0 C 7.521,2.672 19.217,3.029 26.849,0.651 22.95,1.206 19.011,1.326 15.085,1.312 10.033,1.233 4.983,0.901 0,0"
             style="fill:#892929;fill-opacity:1;fill-rule:nonzero;stroke:none"
             id="path252" />
        </g>
        <g
           id="g254"
           transform="translate(12.4724,355.5598)">
          <path
             d="m 0,0 c 0.109,-3.383 0.377,-7.205 2.402,-10.016 0.482,-0.654 1.201,-1.219 1.858,-1.708 4.154,-2.817 8.776,-4.828 13.257,-7.082 -4.554,1.44 -8.99,3.25 -13.05,5.818 0,0 -0.749,0.516 -0.749,0.516 l -0.722,0.57 C -0.337,-9.201 -0.532,-3.927 0,0"
             style="fill:#892929;fill-opacity:1;fill-rule:nonzero;stroke:none"
             id="path256" />
        </g>
        <g
           id="g258"
           transform="translate(70.214,356.9604)">
          <path
             d="m 0,0 c 0.72,-3.903 0.787,-9.164 -2.416,-12.033 0,0 -0.693,-0.604 -0.693,-0.604 l -0.723,-0.552 c -3.931,-2.762 -8.273,-4.785 -12.753,-6.444 4.366,2.468 8.886,4.701 12.899,7.717 0.632,0.521 1.322,1.118 1.773,1.796 C -0.022,-7.196 0.052,-3.402 0,0"
             style="fill:#892929;fill-opacity:1;fill-rule:nonzero;stroke:none"
             id="path260" />
        </g>
        <g
           id="g262">
          <g
             id="g264" />
          <g
             id="g276">
            <g
               clip-path="url(#clipPath268)"
               opacity="0.399994"
               id="g274">
              <g
                 transform="translate(63.0469,371.4755)"
                 id="g272">
                <path
                   d="m 0,0 c 0.094,-3.855 -2.955,-7.055 -6.81,-7.149 -3.855,-0.093 -7.055,2.956 -7.149,6.81 -0.093,3.855 2.956,7.056 6.81,7.149 C -3.294,6.904 -0.094,3.855 0,0"
                   style="fill:#2d100f;fill-opacity:1;fill-rule:nonzero;stroke:none"
                   id="path270" />
              </g>
            </g>
          </g>
        </g>
        <g
           id="g278"
           transform="translate(62.266,369.6883)">
          <path
             d="m 0,0 c 0.072,-2.958 -1.562,-5.019 -4,-6.019 -1.041,-0.43 -2.227,-0.665 -3.49,-0.696 -2.514,-0.061 -4.766,0.704 -6.198,2.224 -0.971,1.031 -1.564,2.414 -1.605,4.12 -0.103,4.223 3.239,7.731 7.46,7.833 C -3.61,7.565 -0.102,4.223 0,0"
             style="fill:#fddfd5;fill-opacity:1;fill-rule:nonzero;stroke:none"
             id="path280" />
        </g>
        <g
           id="g282"
           transform="translate(59.6642,367.5754)">
          <path
             d="m 0,0 c 0.036,-1.489 -0.495,-2.861 -1.398,-3.906 -1.042,-0.431 -2.227,-0.666 -3.49,-0.696 -2.515,-0.061 -4.766,0.704 -6.198,2.224 -0.273,0.646 -0.432,1.354 -0.45,2.098 -0.077,3.185 2.442,5.832 5.627,5.91 C -2.722,5.707 -0.077,3.185 0,0"
             style="fill:#6d1e1d;fill-opacity:1;fill-rule:nonzero;stroke:none"
             id="path284" />
        </g>
        <g
           id="g286"
           transform="translate(46.9596,369.8764)">
          <path
             d="m 0,0 c 0.004,2.514 1.157,5.166 3.341,6.552 2.219,1.395 5.085,1.512 7.524,0.655 2.957,-1.068 4.729,-4.347 4.441,-7.394 -0.3,2.813 -1.97,5.656 -4.744,6.562 C 9.68,6.682 8.74,6.812 7.803,6.805 3.553,6.955 0.791,4.047 0,0"
             style="fill:#892929;fill-opacity:1;fill-rule:nonzero;stroke:none"
             id="path288" />
        </g>
        <g
           id="g290">
          <g
             id="g292" />
          <g
             id="g304">
            <g
               clip-path="url(#clipPath296)"
               opacity="0.399994"
               id="g302">
              <g
                 transform="translate(19.9089,370.4291)"
                 id="g300">
                <path
                   d="m 0,0 c 0.093,-3.855 3.294,-6.904 7.149,-6.81 3.854,0.093 6.903,3.294 6.81,7.149 C 13.865,4.193 10.665,7.242 6.81,7.149 2.956,7.055 -0.093,3.855 0,0"
                   style="fill:#2d100f;fill-opacity:1;fill-rule:nonzero;stroke:none"
                   id="path298" />
              </g>
            </g>
          </g>
        </g>
        <g
           id="g306"
           transform="translate(36.0687,369.0528)">
          <path
             d="m 0,0 c 0.041,-1.706 -0.484,-3.116 -1.404,-4.193 -1.356,-1.587 -3.568,-2.461 -6.083,-2.522 -1.263,-0.031 -2.458,0.147 -3.517,0.526 -2.483,0.878 -4.217,2.857 -4.289,5.818 -0.103,4.223 3.239,7.731 7.462,7.833 C -3.61,7.565 -0.102,4.223 0,0"
             style="fill:#fddfd5;fill-opacity:1;fill-rule:nonzero;stroke:none"
             id="path308" />
        </g>
        <g
           id="g310"
           transform="translate(35.013,366.9775)">
          <path
             d="m 0,0 c 0.018,-0.745 -0.106,-1.459 -0.348,-2.117 -1.357,-1.588 -3.568,-2.462 -6.083,-2.523 -1.263,-0.03 -2.458,0.147 -3.517,0.526 -0.952,1.001 -1.552,2.345 -1.588,3.834 -0.077,3.185 2.442,5.832 5.629,5.91 C -2.722,5.707 -0.077,3.185 0,0"
             style="fill:#6d1e1d;fill-opacity:1;fill-rule:nonzero;stroke:none"
             id="path312" />
        </g>
        <g
           id="g314"
           transform="translate(36.0548,369.6118)">
          <path
             d="M 0,0 C -0.989,4.006 -3.884,6.773 -8.124,6.419 -9.06,6.38 -9.993,6.204 -10.859,5.856 c -2.727,-1.04 -4.256,-3.961 -4.42,-6.785 -0.278,1.998 0.308,4.132 1.589,5.721 1.306,1.656 3.46,2.47 5.515,2.559 C -3.606,7.693 -0.254,4.502 0,0"
             style="fill:#892929;fill-opacity:1;fill-rule:nonzero;stroke:none"
             id="path316" />
        </g>
        <g
           id="g318"
           transform="translate(55.7702,359.4525)">
          <path
             d="m 0,0 c 7.562,4.076 15.72,7.09 24.099,8.982 0,0 1.682,0.356 1.682,0.356 L 24.117,8.908 C 15.814,6.738 7.723,3.739 0,0"
             style="fill:#6d1e1d;fill-opacity:1;fill-rule:nonzero;stroke:none"
             id="path320" />
        </g>
        <g
           id="g322"
           transform="translate(57.4171,358.6252)">
          <path
             d="m 0,0 c 6.052,2.206 12.51,3.358 18.951,3.394 0,0 -1.204,-0.092 -1.204,-0.092 C 11.736,2.836 5.779,1.716 0,0"
             style="fill:#6d1e1d;fill-opacity:1;fill-rule:nonzero;stroke:none"
             id="path324" />
        </g>
        <g
           id="g326"
           transform="translate(73.3223,356.0307)">
          <path
             d="m 0,0 -1.014,0.124 c -0.88,0.111 -1.758,0.204 -2.64,0.283 -1.381,0.124 -2.767,0.214 -4.152,0.266 L -7.829,0.672 c -2.807,0.107 -5.622,0.067 -8.428,-0.112 2.867,0.393 5.774,0.521 8.668,0.39 0.012,0.001 0.02,0.001 0.032,-0.002 C -6.184,0.887 -4.814,0.766 -3.452,0.584 -2.294,0.431 -1.143,0.236 0,0"
             style="fill:#6d1e1d;fill-opacity:1;fill-rule:nonzero;stroke:none"
             id="path328" />
        </g>
        <g
           id="g330"
           transform="translate(29.5891,358.079)">
          <path
             d="m 0,0 c -7.751,3.705 -16.045,6.32 -24.507,7.803 0,0 -1.696,0.274 -1.696,0.274 l 1.682,-0.348 C -16.122,5.964 -7.896,3.36 0,0"
             style="fill:#6d1e1d;fill-opacity:1;fill-rule:nonzero;stroke:none"
             id="path332" />
        </g>
        <g
           id="g334"
           transform="translate(27.9843,357.1729)">
          <path
             d="m 0,0 c -6.152,1.91 -12.658,2.747 -19.094,2.471 0,0 1.207,-0.033 1.207,-0.033 C -11.86,2.263 -5.855,1.433 0,0"
             style="fill:#6d1e1d;fill-opacity:1;fill-rule:nonzero;stroke:none"
             id="path336" />
        </g>
        <g
           id="g338"
           transform="translate(28.4347,355.1567)">
          <path
             d="m 0,0 c -5.423,0.476 -10.94,0.015 -16.21,-1.347 0,0 1.005,0.175 1.005,0.175 C -10.188,-0.302 -5.09,0.079 0,0"
             style="fill:#6d1e1d;fill-opacity:1;fill-rule:nonzero;stroke:none"
             id="path340" />
        </g>
        <g
           id="g342"
           transform="translate(42.4442,345.2255)">
          <path
             d="m 0,0 v -0.003 l -0.366,-0.009 v 0.003 c -12.3,-0.201 -13.541,4.802 -13.529,8.673 0.011,3.911 3.561,6.372 5.679,11.033 1.877,4.13 6.422,4.304 7.434,4.288 l 0.034,0.001 C 0.262,24.05 4.813,24.098 6.887,20.063 9.227,15.51 12.892,13.224 13.092,9.319 13.292,5.453 12.295,0.396 0,0"
             style="fill:#fddfd5;fill-opacity:1;fill-rule:nonzero;stroke:none"
             id="path344" />
        </g>
        <g
           id="g346"
           transform="translate(35.5969,360.4348)">
          <path
             d="m 0,0 c 0.132,-1.501 1.794,-2.403 3.056,-1.622 1.511,0.939 2.397,2.743 2.933,4.4 0.44,-0.975 0.857,-2.279 1.551,-3.028 1.036,-1.248 2.627,-0.923 3.527,0.328 0.47,0.603 0.765,1.359 1.086,2.1 -0.529,-4.832 -4.889,-5.489 -6.562,-0.84 0,0 0.862,0.013 0.862,0.013 C 6.012,0.229 5.316,-0.781 4.409,-1.577 3.796,-2.119 2.977,-2.573 2.119,-2.503 0.86,-2.458 -0.216,-1.201 0,0"
             style="fill:#892929;fill-opacity:1;fill-rule:nonzero;stroke:none"
             id="path348" />
        </g>
        <g
           id="g350"
           transform="translate(41.6852,362.4654)">
          <path
             d="m 0,0 c 0,0 -4.114,1.771 -3.778,2.696 0.336,0.922 3.697,0.645 3.697,0.645 0,0 3.341,0.439 3.721,-0.465 C 4.02,1.968 0,0 0,0"
             style="fill:#ef8b81;fill-opacity:1;fill-rule:nonzero;stroke:none"
             id="path352" />
        </g>
        <g
           id="g354"
           transform="translate(34.2287,364.9221)">
          <path
             d="M 0,0 C 1.402,4.789 8.055,5.783 12.038,3.786 13.411,3.055 14.637,1.865 15.103,0.366 14.286,1.662 13.052,2.561 11.729,3.126 7.79,4.571 2.259,3.958 0,0"
             style="fill:#892929;fill-opacity:1;fill-rule:nonzero;stroke:none"
             id="path356" />
        </g>
        <g
           id="g358"
           transform="translate(38.0925,358.2545)">
          <path
             d="m 0,0 c 0,0 1.271,-5.285 3.992,-5.673 2.72,-0.388 2.481,6.415 2.481,6.415 0,0 -2.818,0.666 -2.949,2.956 C 3.524,3.698 2.702,0.902 0,0"
             style="fill:#6d1e1d;fill-opacity:1;fill-rule:nonzero;stroke:none"
             id="path360" />
        </g>
        <g
           id="g362"
           transform="translate(38.5513,356.7921)">
          <path
             d="m 0,0 c 0.588,-1.595 1.748,-3.956 3.533,-4.211 1.404,-0.2 2.018,1.515 2.286,3.222 C 4.099,0.039 2.027,0.435 0,0"
             style="fill:#ef8b81;fill-opacity:1;fill-rule:nonzero;stroke:none"
             id="path364" />
        </g>
        <g
           id="g366">
          <g
             id="g368" />
          <g
             id="g380">
            <g
               clip-path="url(#clipPath372)"
               opacity="0.399994"
               id="g378">
              <g
                 transform="translate(135.4468,341.1695)"
                 id="g376">
                <path
                   d="m 0,0 c 0,0 3.277,-12.53 16.827,-14.886 13.549,-2.356 19.588,8.01 19.588,8.01 0,0 -19.23,-4.436 -36.415,6.876"
                   style="fill:#2d100f;fill-opacity:1;fill-rule:nonzero;stroke:none"
                   id="path374" />
              </g>
            </g>
          </g>
        </g>
        <g
           id="g382"
           transform="translate(147.985,382.1971)">
          <path
             d="m 0,0 c -1.992,-0.107 -3.757,-0.361 -4.903,-0.848 -1.033,-0.44 -2.409,-1.363 -3.928,-2.645 -1.339,-1.128 -2.786,-2.533 -4.21,-4.134 -0.584,4.38 -0.381,8.877 0.896,13.096 1.475,4.872 4.443,9.352 8.63,12.247 0.763,0.527 1.585,1.012 2.497,1.19 0.07,0.014 0.139,0.026 0.21,0.034 C 0.117,17.276 0.797,15.483 1.228,13.629 2.28,9.115 1.866,4.242 0,0"
             style="fill:#ef8b81;fill-opacity:1;fill-rule:nonzero;stroke:none"
             id="path384" />
        </g>
        <g
           id="g386"
           transform="translate(186.7205,355.0027)">
          <path
             d="m 0,0 c -1.305,-2.604 -3.832,-5.22 -8.693,-5.075 -9.769,0.291 -13.414,6.047 -13.042,10.974 0.371,4.926 2.778,13.923 -4.552,15.198 -7.331,1.274 -8.102,-8.007 -9.415,-12.77 -1.314,-4.762 -6.687,-8.95 -15.981,-5.927 -4.628,1.508 -6.121,4.823 -6.47,7.715 1.604,3.439 3.952,6.728 6.376,9.452 3.043,3.421 6.198,5.954 8.138,6.779 1.146,0.487 2.911,0.741 4.904,0.848 2.63,5.985 2.376,13.215 -0.809,18.94 0.854,0.113 1.775,-0.076 2.395,-0.669 0.564,-0.537 0.809,-1.318 1.034,-2.064 1.643,-5.431 3.286,-10.862 4.928,-16.295 3.285,-0.197 5.858,-0.499 5.858,-0.499 0,0 2.523,-0.584 5.682,-1.508 3.38,4.56 6.76,9.118 10.14,13.675 0.463,0.626 0.957,1.279 1.669,1.594 0.785,0.349 1.715,0.216 2.481,-0.179 -4.928,-4.314 -7.608,-11.034 -7.155,-17.555 1.84,-0.773 3.416,-1.608 4.33,-2.453 C -6.635,18.749 -4.52,15.3 -2.811,11.052 -1.448,7.67 -0.346,3.778 0,0"
             style="fill:#dc9d94;fill-opacity:1;fill-rule:nonzero;stroke:none"
             id="path388" />
        </g>
        <g
           id="g390"
           transform="translate(186.3696,348.2034)">
          <path
             d="m 0,0 c -1.298,-5.608 -5.568,-10.607 -12.678,-13.214 -5.303,-1.944 -12.186,-2.555 -20.597,-1.093 -8.476,1.474 -14.782,4.408 -19.122,8.07 -5.738,4.837 -8.039,10.947 -7.37,16.63 0.254,2.165 0.964,4.373 1.965,6.521 0.349,-2.892 1.842,-6.207 6.47,-7.715 9.294,-3.023 14.667,1.165 15.981,5.928 1.313,4.762 2.084,14.044 9.415,12.769 7.33,-1.275 4.923,-10.271 4.551,-15.198 C -21.756,7.771 -18.111,2.016 -8.342,1.724 -3.481,1.579 -0.954,4.195 0.351,6.799 0.568,4.439 0.491,2.124 0,0"
             style="fill:#fddfd5;fill-opacity:1;fill-rule:nonzero;stroke:none"
             id="path392" />
        </g>
        <g
           id="g394"
           transform="translate(183.9099,366.0552)">
          <path
             d="m 0,0 c -1.709,4.248 -3.824,7.697 -5.372,9.129 -0.914,0.845 -2.49,1.68 -4.329,2.453 -0.453,6.521 2.227,13.24 7.154,17.555 0.065,-0.032 0.126,-0.065 0.186,-0.102 0.798,-0.476 1.409,-1.21 1.949,-1.964 C 2.552,22.934 3.833,17.714 3.577,12.631 3.355,8.227 2.029,3.926 0,0"
             style="fill:#ef8b81;fill-opacity:1;fill-rule:nonzero;stroke:none"
             id="path396" />
        </g>
        <g
           id="g398"
           transform="translate(126.5978,354.8013)">
          <path
             d="m 0,0 c 1.134,-6.302 5.587,-11.454 10.769,-14.93 1.159,-0.842 2.528,-1.595 3.737,-2.365 -0.922,0.352 -1.841,0.73 -2.748,1.136 -0.777,0.44 -1.88,0.965 -2.599,1.47 -2.511,1.616 -4.8,3.726 -6.436,6.238 C 1.09,-5.97 -0.068,-2.989 0,0"
             style="fill:#892929;fill-opacity:1;fill-rule:nonzero;stroke:none"
             id="path400" />
        </g>
        <g
           id="g402"
           transform="translate(184.0647,342.834)">
          <path
             d="m 0,0 c -3.179,-5.623 -9.532,-8.944 -15.806,-9.733 -2.114,-0.267 -4.252,-0.28 -6.349,-0.014 2.109,0.123 4.192,0.34 6.234,0.734 C -9.83,-7.861 -3.953,-4.856 0,0"
             style="fill:#892929;fill-opacity:1;fill-rule:nonzero;stroke:none"
             id="path404" />
        </g>
        <g
           id="g406">
          <g
             id="g408" />
          <g
             id="g420">
            <g
               clip-path="url(#clipPath412)"
               opacity="0.399994"
               id="g418">
              <g
                 transform="translate(181.3896,362.5163)"
                 id="g416">
                <path
                   d="m 0,0 c -0.734,-4.221 -4.751,-7.048 -8.971,-6.314 -4.221,0.734 -7.048,4.751 -6.314,8.972 0.734,4.221 4.751,7.047 8.971,6.313 C -2.093,8.237 0.734,4.221 0,0"
                   style="fill:#2d100f;fill-opacity:1;fill-rule:nonzero;stroke:none"
                   id="path414" />
              </g>
            </g>
          </g>
        </g>
        <g
           id="g422"
           transform="translate(180.1511,360.7381)">
          <path
             d="m 0,0 c -0.563,-3.239 -2.79,-5.131 -5.664,-5.692 -1.228,-0.243 -2.571,-0.242 -3.954,-0.002 -2.754,0.479 -5.041,1.801 -6.272,3.768 -0.835,1.334 -1.181,2.97 -0.856,4.838 0.804,4.624 5.206,7.722 9.828,6.919 C -2.294,9.027 0.804,4.625 0,0"
             style="fill:#f9a872;fill-opacity:1;fill-rule:nonzero;stroke:none"
             id="path424" />
        </g>
        <g
           id="g426"
           transform="translate(176.8576,358.9997)">
          <path
             d="m 0,0 c -0.284,-1.631 -1.16,-3.01 -2.371,-3.954 -1.228,-0.243 -2.571,-0.242 -3.953,-10e-4 -2.754,0.478 -5.042,1.801 -6.272,3.767 -0.158,0.763 -0.178,1.569 -0.036,2.385 0.606,3.487 3.925,5.826 7.413,5.219 C -1.729,6.809 0.606,3.488 0,0"
             style="fill:#6d1e1d;fill-opacity:1;fill-rule:nonzero;stroke:none"
             id="path428" />
        </g>
        <g
           id="g430"
           transform="translate(163.5117,364.262)">
          <path
             d="M 0,0 C 1.311,5.752 6.359,8.254 11.826,6.218 15.833,4.811 17.751,0.463 16.639,-3.523 16.955,-0.385 15.752,3.1 12.918,4.699 12.019,5.229 11.017,5.577 9.99,5.775 5.335,6.861 1.702,4.253 0,0"
             style="fill:#892929;fill-opacity:1;fill-rule:nonzero;stroke:none"
             id="path432" />
        </g>
        <g
           id="g434">
          <g
             id="g436" />
          <g
             id="g448">
            <g
               clip-path="url(#clipPath440)"
               opacity="0.399994"
               id="g446">
              <g
                 transform="translate(135.9833,370.4118)"
                 id="g444">
                <path
                   d="m 0,0 c -0.734,-4.221 2.093,-8.237 6.314,-8.971 4.22,-0.734 8.237,2.092 8.971,6.313 C 16.019,1.563 13.192,5.58 8.971,6.314 4.751,7.047 0.734,4.221 0,0"
                   style="fill:#2d100f;fill-opacity:1;fill-rule:nonzero;stroke:none"
                   id="path442" />
              </g>
            </g>
          </g>
        </g>
        <g
           id="g450"
           transform="translate(153.2951,365.4079)">
          <path
             d="m 0,0 c -0.325,-1.868 -1.203,-3.291 -2.439,-4.265 -1.823,-1.436 -4.422,-1.908 -7.176,-1.429 -1.383,0.24 -2.647,0.693 -3.718,1.335 -2.516,1.496 -3.977,4.029 -3.413,7.271 0.804,4.624 5.206,7.722 9.831,6.918 C -2.294,9.027 0.804,4.625 0,0"
             style="fill:#f9a872;fill-opacity:1;fill-rule:nonzero;stroke:none"
             id="path452" />
        </g>
        <g
           id="g454"
           transform="translate(151.6945,363.3752)">
          <path
             d="m 0,0 c -0.142,-0.815 -0.432,-1.567 -0.839,-2.232 -1.822,-1.436 -4.422,-1.908 -7.175,-1.429 -1.383,0.24 -2.647,0.692 -3.719,1.335 -0.821,1.297 -1.183,2.892 -0.899,4.523 0.606,3.487 3.925,5.826 7.416,5.219 C -1.729,6.809 0.606,3.488 0,0"
             style="fill:#6d1e1d;fill-opacity:1;fill-rule:nonzero;stroke:none"
             id="path456" />
        </g>
        <g
           id="g458"
           transform="translate(153.4011,366.0201)">
          <path
             d="m 0,0 c -0.093,2.141 -0.707,4.323 -2.047,5.991 -2.258,2.781 -6.726,3.646 -10.01,2.353 -2.461,-1.059 -4.142,-3.475 -4.794,-6.043 0.3,4.129 3.57,7.571 7.819,7.544 C -3.199,9.917 0.709,5.853 0,0"
             style="fill:#892929;fill-opacity:1;fill-rule:nonzero;stroke:none"
             id="path460" />
        </g>
        <g
           id="g462"
           transform="translate(150.8535,357.2243)">
          <path
             d="m 0,0 c -0.163,-1.498 1.291,-2.706 2.681,-2.188 1.665,0.627 2.886,2.224 3.735,3.743 0.241,-1.042 0.396,-2.401 0.93,-3.272 0.773,-1.426 2.397,-1.417 3.523,-0.367 0.579,0.5 1.016,1.185 1.475,1.848 -1.461,-4.635 -5.866,-4.429 -6.599,0.457 0,0 0.848,-0.155 0.848,-0.155 C 5.941,-0.949 5.061,-1.804 4.016,-2.407 3.31,-2.819 2.417,-3.104 1.59,-2.868 0.363,-2.579 -0.446,-1.136 0,0"
             style="fill:#892929;fill-opacity:1;fill-rule:nonzero;stroke:none"
             id="path464" />
        </g>
        <g
           id="g466"
           transform="translate(157.221,358.0278)">
          <path
             d="M 0,0 C 0,0 -3.689,2.54 -3.179,3.381 -2.67,4.22 0.573,3.293 0.573,3.293 c 0,0 3.362,-0.222 3.558,-1.183 C 4.327,1.146 0,0 0,0"
             style="fill:#ef8b81;fill-opacity:1;fill-rule:nonzero;stroke:none"
             id="path468" />
        </g>
        <g
           id="g470"
           transform="translate(154.1773,352.5654)">
          <path
             d="M 0,0 C 1.164,-1.264 2.086,-2.442 3.019,-3.886 1.167,-3.8 -0.37,-1.814 0,0"
             style="fill:#eeb5ab;fill-opacity:1;fill-rule:nonzero;stroke:none"
             id="path472" />
        </g>
        <g
           id="g474"
           transform="translate(169.5476,352.6444)">
          <path
             d="m 0,0 c 8.212,2.522 16.802,3.886 25.389,4.106 0,0 1.719,0.021 1.719,0.021 L 25.392,4.03 C 16.825,3.522 8.305,2.16 0,0"
             style="fill:#6d1e1d;fill-opacity:1;fill-rule:nonzero;stroke:none"
             id="path476" />
        </g>
        <g
           id="g478"
           transform="translate(171.0013,351.5116)">
          <path
             d="m 0,0 c 6.366,0.983 12.925,0.852 19.249,-0.37 0,0 -1.198,0.145 -1.198,0.145 C 12.064,0.491 6.003,0.555 0,0"
             style="fill:#6d1e1d;fill-opacity:1;fill-rule:nonzero;stroke:none"
             id="path480" />
        </g>
        <g
           id="g482"
           transform="translate(186.0944,345.863)">
          <path
             d="m 0,0 -0.971,0.32 c -0.84,0.28 -1.684,0.543 -2.533,0.792 -1.33,0.391 -2.672,0.75 -4.02,1.071 L -7.547,2.187 C -10.279,2.84 -13.048,3.35 -15.835,3.722 -12.947,3.548 -10.07,3.106 -7.258,2.413 -7.246,2.411 -7.238,2.41 -7.227,2.405 -5.892,2.077 -4.572,1.69 -3.272,1.246 -2.165,0.871 -1.075,0.454 0,0"
             style="fill:#6d1e1d;fill-opacity:1;fill-rule:nonzero;stroke:none"
             id="path484" />
        </g>
        <g
           id="g486"
           transform="translate(143.6018,356.4067)">
          <path
             d="m 0,0 c -6.879,5.146 -14.504,9.33 -22.512,12.436 0,0 -1.611,0.599 -1.611,0.599 l 1.582,-0.67 C -14.648,8.995 -7.088,4.836 0,0"
             style="fill:#6d1e1d;fill-opacity:1;fill-rule:nonzero;stroke:none"
             id="path488" />
        </g>
        <g
           id="g490"
           transform="translate(141.851,355.8312)">
          <path
             d="m 0,0 c -5.661,3.074 -11.878,5.165 -18.244,6.149 0,0 1.177,-0.267 1.177,-0.267 C -11.19,4.534 -5.463,2.549 0,0"
             style="fill:#6d1e1d;fill-opacity:1;fill-rule:nonzero;stroke:none"
             id="path492" />
        </g>
        <g
           id="g494"
           transform="translate(141.8993,353.7659)">
          <path
             d="m 0,0 c -5.225,1.525 -10.727,2.15 -16.161,1.843 0,0 1.019,-0.025 1.019,-0.025 C -10.051,1.693 -4.977,1.071 0,0"
             style="fill:#6d1e1d;fill-opacity:1;fill-rule:nonzero;stroke:none"
             id="path496" />
        </g>
        <g
           id="g498"
           transform="translate(147.985,382.1971)">
          <path
             d="m 0,0 c -1.992,-0.107 -3.757,-0.361 -4.903,-0.848 -1.033,-0.44 -2.409,-1.363 -3.928,-2.645 -0.249,0.092 -0.476,0.237 -0.67,0.442 -0.795,0.847 -0.443,2.321 0.422,3.098 0.867,0.773 2.064,1.033 3.205,1.262 -0.739,-0.072 -1.523,-0.133 -2.179,0.208 -0.656,0.338 -1.077,1.245 -0.644,1.844 0.192,0.269 0.503,0.418 0.81,0.531 1.219,0.439 2.605,0.401 3.795,-0.108 -0.677,0.702 -1.364,1.418 -1.84,2.276 -0.473,0.856 -0.716,1.884 -0.444,2.825 0.267,0.939 1.138,1.735 2.118,1.719 1.14,-0.018 1.987,-1.026 2.639,-1.962 -0.232,1.511 -0.46,3.024 -0.691,4.538 -0.099,0.651 -0.17,1.396 0.267,1.884 0.416,0.469 1.169,0.503 1.735,0.231 C 0.255,15.022 0.66,14.51 1.004,13.985 1.083,13.867 1.158,13.749 1.228,13.629 2.28,9.115 1.866,4.242 0,0"
             style="fill:#fddfd5;fill-opacity:1;fill-rule:nonzero;stroke:none"
             id="path500" />
        </g>
        <g
           id="g502"
           transform="translate(174.21,377.637)">
          <path
             d="m 0,0 c 1.839,-0.773 3.415,-1.608 4.329,-2.453 0.824,-0.763 1.807,-2.096 2.804,-3.816 0.266,0.003 0.529,0.062 0.781,0.19 1.033,0.529 1.199,2.035 0.648,3.058 C 8.007,-2 6.968,-1.351 5.971,-0.751 6.643,-1.068 7.36,-1.39 8.092,-1.291 8.824,-1.194 9.526,-0.482 9.321,0.228 9.231,0.546 8.989,0.792 8.738,1.001 7.739,1.826 6.422,2.258 5.129,2.181 6.004,2.613 6.891,3.055 7.629,3.702 8.363,4.348 8.939,5.233 9.001,6.211 9.066,7.185 8.515,8.228 7.587,8.544 6.509,8.912 5.37,8.249 4.441,7.588 5.169,8.932 5.895,10.28 6.623,11.627 6.936,12.206 7.255,12.884 7.008,13.49 6.775,14.072 6.078,14.358 5.453,14.293 4.831,14.226 4.277,13.881 3.775,13.503 3.662,13.418 3.551,13.333 3.445,13.244 0.931,9.35 -0.324,4.623 0,0"
             style="fill:#fddfd5;fill-opacity:1;fill-rule:nonzero;stroke:none"
             id="path504" />
        </g>
        <g
           id="g506"
           transform="translate(146.1957,382.0511)">
          <path
             d="M 0,0 C 5.251,0.531 10.541,0.803 15.791,-0.084 20.971,-1.253 25.835,-3.306 30.569,-5.639 25.602,-4.025 20.71,-2.111 15.609,-1 10.472,-0.092 5.209,-0.219 0,0"
             style="fill:#892929;fill-opacity:1;fill-rule:nonzero;stroke:none"
             id="path508" />
        </g>
        <g
           id="g510"
           transform="translate(88.9016,335.1496)">
          <path
             d="m 0,0 c 0.162,-1.683 -1.057,-3.312 -2.886,-3.487 l -8.897,-0.854 c -2.284,-0.219 -4.05,1.962 -3.36,4.147 l 0.065,0.213 c 0.961,3.05 3.654,5.235 6.84,5.54 1.658,0.159 3.28,-0.206 4.665,-0.988 1.384,-0.782 2.541,-1.98 3.266,-3.478 C -0.136,0.735 -0.035,0.366 0,0"
             style="fill:#fddfd5;fill-opacity:1;fill-rule:nonzero;stroke:none"
             id="path512" />
        </g>
        <g
           id="g514"
           transform="translate(76.5879,336.1561)">
          <path
             d="M 0,0 C 0.108,-0.684 0.257,-1.672 0.439,-2.327 0.596,-2.984 0.944,-3.931 1.177,-4.577 -0.163,-3.563 -0.682,-1.535 0,0"
             style="fill:#892929;fill-opacity:1;fill-rule:nonzero;stroke:none"
             id="path516" />
        </g>
        <g
           id="g518"
           transform="translate(80.4682,336.0997)">
          <path
             d="M 0,0 C 0.375,-1.447 0.799,-2.777 1.32,-4.178 0.061,-3.276 -0.509,-1.462 0,0"
             style="fill:#892929;fill-opacity:1;fill-rule:nonzero;stroke:none"
             id="path520" />
        </g>
        <g
           id="g522"
           transform="translate(84.1474,336.673)">
          <path
             d="M 0,0 C 0.244,-0.65 0.507,-1.524 0.731,-2.178 0.954,-2.835 1.28,-3.68 1.484,-4.348 0.235,-3.347 -0.374,-1.556 0,0"
             style="fill:#892929;fill-opacity:1;fill-rule:nonzero;stroke:none"
             id="path524" />
        </g>
        <g
           id="g526"
           transform="translate(85.3285,339.7208)">
          <path
             d="M 0,0 C 1.823,-0.914 3.972,-3.029 3.81,-5.231 3.712,-6.418 2.948,-7.535 1.847,-8.045 1.307,-8.326 0.666,-8.364 0.143,-8.416 l -1.647,-0.165 c -2.197,-0.206 -4.395,-0.403 -6.597,-0.565 -2.05,-0.231 -3.876,1.529 -3.671,3.587 0.042,0.345 0.141,0.685 0.267,1.007 -0.705,-2.177 1.071,-4.451 3.358,-4.11 2.192,0.26 4.387,0.484 6.584,0.7 l 1.648,0.151 C 1.713,-7.821 3.103,-6.829 3.328,-5.18 3.543,-3.165 1.591,-1.043 0,0"
             style="fill:#892929;fill-opacity:1;fill-rule:nonzero;stroke:none"
             id="path528" />
        </g>
        <g
           id="g530"
           transform="translate(111.1008,335.1496)">
          <path
             d="m 0,0 c -0.162,-1.683 1.057,-3.312 2.886,-3.487 l 8.897,-0.854 c 2.284,-0.219 4.05,1.962 3.36,4.147 L 15.078,0.019 C 14.117,3.069 11.424,5.254 8.238,5.559 6.58,5.718 4.958,5.353 3.573,4.571 2.189,3.789 1.032,2.591 0.307,1.093 0.136,0.735 0.035,0.366 0,0"
             style="fill:#fddfd5;fill-opacity:1;fill-rule:nonzero;stroke:none"
             id="path532" />
        </g>
        <g
           id="g534"
           transform="translate(123.4146,336.1561)">
          <path
             d="m 0,0 c 0.682,-1.535 0.163,-3.563 -1.177,-4.577 0.235,0.651 0.579,1.589 0.738,2.25 C -0.258,-1.676 -0.107,-0.679 0,0"
             style="fill:#892929;fill-opacity:1;fill-rule:nonzero;stroke:none"
             id="path536" />
        </g>
        <g
           id="g538"
           transform="translate(119.5342,336.0997)">
          <path
             d="M 0,0 C 0.509,-1.462 -0.061,-3.276 -1.32,-4.178 -0.799,-2.777 -0.375,-1.447 0,0"
             style="fill:#892929;fill-opacity:1;fill-rule:nonzero;stroke:none"
             id="path540" />
        </g>
        <g
           id="g542"
           transform="translate(115.855,336.673)">
          <path
             d="m 0,0 c 0.374,-1.555 -0.235,-3.347 -1.484,-4.348 0.203,0.665 0.53,1.516 0.753,2.17 C -0.506,-1.522 -0.245,-0.654 0,0"
             style="fill:#892929;fill-opacity:1;fill-rule:nonzero;stroke:none"
             id="path544" />
        </g>
        <g
           id="g546"
           transform="translate(114.6739,339.7208)">
          <path
             d="m 0,0 c -1.592,-1.043 -3.542,-3.166 -3.328,-5.18 0.228,-1.651 1.613,-2.641 3.243,-2.631 0,0 1.648,-0.151 1.648,-0.151 2.197,-0.216 4.392,-0.44 6.584,-0.7 2.285,-0.342 4.064,1.933 3.358,4.11 0.125,-0.322 0.226,-0.662 0.267,-1.007 0.203,-2.058 -1.619,-3.817 -3.671,-3.587 -2.202,0.162 -4.4,0.359 -6.597,0.565 l -1.647,0.165 c -0.523,0.052 -1.164,0.09 -1.704,0.371 -1.101,0.51 -1.865,1.627 -1.963,2.814 C -3.973,-3.029 -1.822,-0.913 0,0"
             style="fill:#892929;fill-opacity:1;fill-rule:nonzero;stroke:none"
             id="path548" />
        </g>
        <g
           id="g550"
           transform="translate(34.0447,331.6602)">
          <path
             d="m 0,0 c 0.011,-1.691 -1.348,-3.204 -3.185,-3.216 l -8.937,-0.059 c -2.295,-0.014 -3.86,2.315 -2.978,4.43 l 0.084,0.207 c 1.229,2.952 4.105,4.888 7.306,4.909 1.665,0.011 3.249,-0.497 4.558,-1.4 C -1.843,3.969 -0.797,2.672 -0.209,1.116 -0.07,0.744 -0.002,0.367 0,0"
             style="fill:#fddfd5;fill-opacity:1;fill-rule:nonzero;stroke:none"
             id="path552" />
        </g>
        <g
           id="g554"
           transform="translate(21.8694,333.7592)">
          <path
             d="M 0,0 C 0.046,-0.691 0.108,-1.689 0.23,-2.357 0.328,-3.026 0.59,-3.999 0.765,-4.664 -0.48,-3.534 -0.816,-1.468 0,0"
             style="fill:#892929;fill-opacity:1;fill-rule:nonzero;stroke:none"
             id="path556" />
        </g>
        <g
           id="g558"
           transform="translate(25.7294,333.3575)">
          <path
             d="M 0,0 C 0.245,-1.475 0.549,-2.837 0.943,-4.279 -0.231,-3.269 -0.637,-1.411 0,0"
             style="fill:#892929;fill-opacity:1;fill-rule:nonzero;stroke:none"
             id="path560" />
        </g>
        <g
           id="g562"
           transform="translate(29.4451,333.6009)">
          <path
             d="M 0,0 C 0.185,-0.67 0.369,-1.563 0.534,-2.234 0.698,-2.908 0.947,-3.779 1.091,-4.463 -0.064,-3.355 -0.511,-1.516 0,0"
             style="fill:#892929;fill-opacity:1;fill-rule:nonzero;stroke:none"
             id="path564" />
        </g>
        <g
           id="g566"
           transform="translate(30.8928,336.5314)">
          <path
             d="M 0,0 C 1.741,-1.081 3.681,-3.36 3.329,-5.549 3.126,-6.723 2.265,-7.768 1.123,-8.178 0.561,-8.41 -0.081,-8.39 -0.607,-8.395 l -1.655,-0.018 c -2.207,-0.009 -4.414,-0.01 -6.621,0.025 -2.062,-0.047 -3.724,1.868 -3.337,3.9 0.072,0.339 0.202,0.669 0.356,0.979 -0.897,-2.107 0.67,-4.53 2.978,-4.393 2.206,0.064 4.413,0.091 6.62,0.111 l 1.655,0.004 C 0.998,-7.948 2.492,-7.07 2.854,-5.455 3.243,-3.458 1.497,-1.189 0,0"
             style="fill:#892929;fill-opacity:1;fill-rule:nonzero;stroke:none"
             id="path568" />
        </g>
        <g
           id="g570"
           transform="translate(53.4278,331.4595)">
          <path
             d="m 0,0 c -0.084,-1.689 1.208,-3.26 3.043,-3.351 l 8.927,-0.444 c 2.291,-0.114 3.956,2.146 3.166,4.296 l -0.075,0.211 c -1.1,3.002 -3.89,5.061 -7.087,5.22 C 6.311,6.015 4.707,5.575 3.359,4.73 2.012,3.885 0.912,2.635 0.257,1.106 0.102,0.741 0.018,0.367 0,0"
             style="fill:#fddfd5;fill-opacity:1;fill-rule:nonzero;stroke:none"
             id="path572" />
        </g>
        <g
           id="g574"
           transform="translate(65.6824,333.0303)">
          <path
             d="m 0,0 c 0.751,-1.502 0.327,-3.552 -0.966,-4.626 0.205,0.661 0.506,1.614 0.634,2.281 C -0.181,-1.686 -0.076,-0.683 0,0"
             style="fill:#892929;fill-opacity:1;fill-rule:nonzero;stroke:none"
             id="path576" />
        </g>
        <g
           id="g578"
           transform="translate(61.8087,332.7958)">
          <path
             d="M 0,0 C 0.576,-1.437 0.089,-3.275 -1.127,-4.234 -0.671,-2.811 -0.309,-1.462 0,0"
             style="fill:#892929;fill-opacity:1;fill-rule:nonzero;stroke:none"
             id="path580" />
        </g>
        <g
           id="g582"
           transform="translate(58.1071,333.1996)">
          <path
             d="m 0,0 c 0.445,-1.537 -0.081,-3.354 -1.283,-4.411 0.172,0.673 0.46,1.538 0.653,2.202 C -0.435,-1.543 -0.215,-0.664 0,0"
             style="fill:#892929;fill-opacity:1;fill-rule:nonzero;stroke:none"
             id="path584" />
        </g>
        <g
           id="g586"
           transform="translate(56.7873,336.19)">
          <path
             d="m 0,0 c -1.548,-1.123 -3.389,-3.315 -3.087,-5.327 0.294,-1.629 1.744,-2.57 3.361,-2.479 0,0 1.653,-0.075 1.653,-0.075 2.204,-0.116 4.408,-0.239 6.609,-0.398 2.298,-0.236 3.972,2.118 3.165,4.26 0.141,-0.316 0.257,-0.651 0.313,-0.993 0.298,-2.047 -1.442,-3.888 -3.502,-3.752 -2.207,0.06 -4.411,0.156 -6.616,0.261 l -1.653,0.089 c -0.525,0.028 -1.167,0.036 -1.719,0.293 -1.122,0.458 -1.938,1.539 -2.09,2.721 C -3.83,-3.208 -1.778,-0.996 0,0"
             style="fill:#892929;fill-opacity:1;fill-rule:nonzero;stroke:none"
             id="path588" />
        </g>
        <g
           id="g590"
           transform="translate(162.0111,327.6238)">
          <path
             d="m 0,0 c 0.35,-1.654 2,-2.843 3.797,-2.464 l 8.745,1.849 c 2.245,0.474 3.278,3.084 1.965,4.962 L 14.381,4.531 C 12.551,7.154 9.328,8.432 6.197,7.77 4.567,7.426 3.128,6.592 2.041,5.431 0.954,4.27 0.21,2.781 -0.034,1.135 -0.09,0.742 -0.076,0.359 0,0"
             style="fill:#dc9d94;fill-opacity:1;fill-rule:nonzero;stroke:none"
             id="path592" />
        </g>
        <g
           id="g594"
           transform="translate(173.4591,332.2697)">
          <path
             d="m 0,0 c 1.11,-1.261 1.222,-3.351 0.247,-4.72 0.029,0.692 0.077,1.69 0.03,2.368 C 0.255,-1.676 0.101,-0.68 0,0"
             style="fill:#892929;fill-opacity:1;fill-rule:nonzero;stroke:none"
             id="path596" />
        </g>
        <g
           id="g598"
           transform="translate(169.7735,331.0545)">
          <path
             d="M 0,0 C 0.923,-1.242 0.922,-3.144 -0.009,-4.382 0.069,-2.889 0.075,-1.493 0,0"
             style="fill:#892929;fill-opacity:1;fill-rule:nonzero;stroke:none"
             id="path600" />
        </g>
        <g
           id="g602"
           transform="translate(166.0913,330.5004)">
          <path
             d="m 0,0 c 0.822,-1.372 0.778,-3.264 -0.115,-4.593 -0.005,0.695 0.053,1.605 0.07,2.296 0.018,0.694 0.007,1.6 0.045,2.297"
             style="fill:#892929;fill-opacity:1;fill-rule:nonzero;stroke:none"
             id="path604" />
        </g>
        <g
           id="g606"
           transform="translate(164.0522,333.0549)">
          <path
             d="m 0,0 c -1.21,-1.481 -2.431,-4.07 -1.626,-5.938 0.701,-1.5 2.343,-2.041 3.883,-1.54 0,0 1.618,0.349 1.618,0.349 2.16,0.451 4.322,0.895 6.491,1.303 2.282,0.357 3.3,3.06 1.974,4.926 0.216,-0.269 0.414,-0.564 0.556,-0.88 0.81,-1.904 -0.402,-4.128 -2.429,-4.522 C 8.318,-6.807 6.161,-7.276 4.003,-7.738 L 2.382,-8.073 C 1.868,-8.18 1.245,-8.336 0.646,-8.229 -0.557,-8.072 -1.621,-7.235 -2.07,-6.132 -2.882,-4.067 -1.469,-1.427 0,0"
             style="fill:#892929;fill-opacity:1;fill-rule:nonzero;stroke:none"
             id="path608" />
        </g>
        <g
           id="g610"
           transform="translate(143.9283,332.285)">
          <path
             d="m 0,0 c -0.016,-1.691 -1.4,-3.182 -3.236,-3.164 l -8.938,0.086 c -2.294,0.022 -3.822,2.377 -2.906,4.477 l 0.088,0.206 c 1.276,2.931 4.183,4.821 7.384,4.79 1.666,-0.016 3.241,-0.55 4.535,-1.473 C -1.778,3.998 -0.754,2.685 -0.191,1.119 -0.058,0.745 0.004,0.367 0,0"
             style="fill:#dc9d94;fill-opacity:1;fill-rule:nonzero;stroke:none"
             id="path612" />
        </g>
        <g
           id="g614"
           transform="translate(131.7887,334.5806)">
          <path
             d="M 0,0 C 0.035,-0.691 0.08,-1.69 0.192,-2.36 0.279,-3.03 0.525,-4.008 0.689,-4.676 -0.537,-3.526 -0.839,-1.455 0,0"
             style="fill:#892929;fill-opacity:1;fill-rule:nonzero;stroke:none"
             id="path616" />
        </g>
        <g
           id="g618"
           transform="translate(135.6415,334.1166)">
          <path
             d="M 0,0 C 0.221,-1.478 0.503,-2.846 0.874,-4.294 -0.284,-3.264 -0.66,-1.4 0,0"
             style="fill:#892929;fill-opacity:1;fill-rule:nonzero;stroke:none"
             id="path620" />
        </g>
        <g
           id="g622"
           transform="translate(139.3607,334.2999)">
          <path
             d="M 0,0 C 0.174,-0.672 0.344,-1.569 0.497,-2.243 0.651,-2.919 0.886,-3.794 1.019,-4.48 -0.118,-3.353 -0.535,-1.508 0,0"
             style="fill:#892929;fill-opacity:1;fill-rule:nonzero;stroke:none"
             id="path624" />
        </g>
        <g
           id="g626"
           transform="translate(140.8557,337.2065)">
          <path
             d="m 0,0 c 1.717,-1.1 3.631,-3.43 3.239,-5.603 -0.222,-1.17 -1.1,-2.2 -2.248,-2.592 -0.567,-0.223 -1.208,-0.193 -1.734,-0.19 l -1.655,0.009 c -2.206,0.027 -4.413,0.062 -6.62,0.133 -2.062,-0.014 -3.693,1.928 -3.273,3.953 0.078,0.338 0.212,0.666 0.372,0.973 -0.931,-2.091 0.596,-4.539 2.906,-4.44 2.207,0.028 4.414,0.02 6.621,0.004 l 1.655,-0.023 C 0.87,-7.963 2.377,-7.109 2.765,-5.501 3.187,-3.51 1.477,-1.213 0,0"
             style="fill:#892929;fill-opacity:1;fill-rule:nonzero;stroke:none"
             id="path628" />
        </g>
      </g>
    </g>
  </g>
</svg>
